# xmcd
#
# Track frame offsets: 
#        150
#        20740
#        37434
#        53890
#        71257
#        92135
#        109665
#        134984
#        148229
#        167130
#        183779
#        207573
#        222325
#        234985
#
# Disc length: 3372 seconds
#
# Revision: 3
# Processed by: cddbd v1.4PL0 Copyright (c) Steve Scherf et al.
# Submitted via: ExactAudioCopy v0.95a3
#
DISCID=de0d2a0e
DTITLE=Various Artist - A Measure Of Blues
DYEAR=1900
DGENRE=Blues
TTITLE0=Jessie "Wild Bill" Austin - Salt Pork West Virginia
TTITLE1=Big Joe and The Dynaflows - Layin' In The Alley
TTITLE2=Roomful Of Blues - Turn It On! Turn It Up!
TTITLE3=Tom Principato - I'm Gone
TTITLE4=Anson Funderburgh and The Rockets - Back Stroke
TTITLE5=Little Buster and the Soul Brothers - What Can I Do
TTITLE6=Debby Dobbins and Friends - Jazz Freak
TTITLE7=Ronnie Earl and the Broadcasters - Off The Hook
TTITLE8=Jimmy McCracklin - In The Alley
TTITLE9=King Bisquit Boy - Achin' Head
TTITLE10=Danny Gatton - Sky King
TTITLE11=Tom Cunningham Orchestra - Why Don't You Do Right?
TTITLE12=Cathy Ponton King - Move A Lot
TTITLE13=Doug Jay and the Blue Jays - Slinky
EXTD=
EXTT0=
EXTT1=
EXTT2=
EXTT3=
EXTT4=
EXTT5=
EXTT6=
EXTT7=
EXTT8=
EXTT9=
EXTT10=
EXTT11=
EXTT12=
EXTT13=
PLAYORDER=
